<?xml version="1.0" encoding="utf-8"?>
<!-- Generator: Adobe Illustrator 19.2.1, SVG Export Plug-In . SVG Version: 6.00 Build 0)  -->
<svg version="1.1" id="Layer_1" xmlns="http://www.w3.org/2000/svg" xmlns:xlink="http://www.w3.org/1999/xlink" x="0px" y="0px"
	 viewBox="0 0 90 90"   xml:space="preserve">
<style type="text/css">
	.st0{fill:#010101;}
	.st1{fill:#FFFFFF;}
	.st2{fill:#66499D;}
	.st3{fill:#1586C8;}
	.st4{fill:#39B24A;}
	.st5{fill:#CF1974;}
	.st6{fill:#F04B23;}
</style>

<g >
	<path class="st1" d="M62.3,84.7H27.7c-12.3,0-22.4-10.1-22.4-22.4V27.7c0-12.3,10.1-22.4,22.4-22.4h34.7
		c12.3,0,22.4,10.1,22.4,22.4v34.7C84.7,74.6,74.6,84.7,62.3,84.7z"/>
	<g>
		<path class="st2" d="M59.4,65.8c-1.1,0-2.2-0.5-3-1.4L40.2,47c-0.7-0.9-1-2.1-0.8-3.2c0.4-1.8,2-3,3.8-3h7.3
			c3.9,0,5.3-2.5,5.3-4.6c0-2.1-1.4-4.4-5.3-4.3H34.3V62c0,2.1-1.7,3.9-3.8,3.9c-2.2,0.1-3.9-1.7-3.9-3.8v-34c0-2.1,1.7-3.8,3.8-3.8
			h20c8.5,0,12.9,6,12.9,12c0,3.2-1.2,6.2-3.4,8.4c-1.6,1.7-4.5,3.6-9,3.8l11.4,11.3c1.3,1.7,1,4.1-0.6,5.4
			C61.1,65.5,60.2,65.8,59.4,65.8z"/>
		<g>
			<path class="st3" d="M68.7,17.6c1,0,1.9,0.4,2.6,1.1c0.7,0.7,1.1,1.6,1.1,2.6v12.1c1.1,0.2,2.2,0.3,3.4,0.6
				c0.7,0.2,1.4,0.2,2.2,0.4c0.3,0.1,0.7,0.2,1,0.2V21.3c0-2.7-1-5.3-3-7.2c-1.9-1.9-4.5-3-7.2-3l0,0H40.3c-1.5,2-2.8,4.2-3.8,6.6
				L68.7,17.6L68.7,17.6z"/>
		</g>
		<path class="st4" d="M40.3,11.1h-19c-2.7,0-5.3,1-7.2,3c-1.9,1.9-3,4.5-3,7.2v32.4c1.9-2,4-3.9,6.2-5.6c0.2-0.1,0.3-0.2,0.4-0.3
			V21.3c0-1,0.4-1.9,1.1-2.6c0.7-0.6,1.6-1.1,2.6-1.1h15.3C37.5,15.3,38.8,13,40.3,11.1z"/>
		<path class="st5" d="M68.7,72.4H47.6c1,2.4,2.4,4.6,4,6.6h17.1c5.7,0,10.2-4.6,10.2-10.2V37.4c-2.2-0.5-4.3-0.9-6.6-1.1v32.4
			C72.4,70.8,70.8,72.4,68.7,72.4z"/>
		<g>
			<path class="st6" d="M47.6,72.4h9.5H21.3c-2,0-3.7-1.7-3.7-3.7V55.5c-2.3,2.3-4.6,4.8-6.6,7.4v5.8c0,5.7,4.6,10.2,10.2,10.2l0,0
				h30.4C50,77,48.7,74.8,47.6,72.4z"/>
		</g>
	</g>
</g>
</svg>
